<svg height="581pt" viewBox="-18 -57 581.3322 581" width="581pt" xmlns="http://www.w3.org/2000/svg"><path d="m23.140625 186.921875c-1.597656 0-3.175781-.445313-4.550781-1.320313-1.910156-1.207031-3.257813-3.121093-3.753906-5.324218l-14.109376-62.765625c-1.71875-7.648438-.359374-15.496094 3.828126-22.117188 4.191406-6.617187 10.703124-11.214843 18.347656-12.925781l374.730468-84.25c15.789063-3.527344 31.492188 6.402344 35.035157 22.175781l14.113281 62.761719c1.027344 4.589844-1.851562 9.148438-6.441406 10.175781l-415.332032 93.382813c-.613281.140625-1.242187.207031-1.867187.207031zm380.917969-172.390625c-.886719 0-1.792969.097656-2.699219.304688l-374.726563 84.246093c-3.203124.722657-5.933593 2.640625-7.6875 5.421875-1.753906 2.777344-2.324218 6.070313-1.605468 9.265625l12.242187 54.460938 398.714844-89.640625-12.242187-54.453125c-1.28125-5.710938-6.371094-9.605469-11.996094-9.605469zm0 0"/><path d="m288 464.796875h-255.195312c-8.640626 0-15.671876-7.035156-15.671876-15.667969v-197.175781c0-4.707031 3.816407-8.515625 8.515626-8.515625h158.335937c4.703125 0 8.515625 3.808594 8.515625 8.515625 0 4.703125-3.8125 8.507813-8.515625 8.507813h-149.820313v187.308593h253.835938c4.703125 0 8.515625 3.808594 8.515625 8.515625 0 4.707032-3.8125 8.511719-8.515625 8.511719zm0 0"/><path d="m183.984375 260.460938h-158.335937c-4.699219 0-8.515626-3.804688-8.515626-8.507813v-76.628906c0-4.707031 3.816407-8.511719 8.515626-8.511719h212.851562c4.699219 0 8.511719 3.804688 8.511719 8.511719s-3.8125 8.515625-8.511719 8.515625h-204.335938v59.597656h149.820313c4.703125 0 8.515625 3.808594 8.515625 8.515625 0 4.703125-3.8125 8.507813-8.515625 8.507813zm0 0"/><path d="m432.363281 464.796875h-149.339843c-15.160157 0-27.496094-12.335937-27.496094-27.496094v-40.617187h-35.511719c-27.367187 0-49.628906-22.261719-49.628906-49.621094v-35.515625c0-103.28125 84.023437-187.308594 187.304687-187.308594s187.308594 84.027344 187.308594 187.308594v35.515625c0 27.359375-22.261719 49.621094-49.628906 49.621094h-35.511719v40.617187c0 15.160157-12.332031 27.496094-27.496094 27.496094zm-74.671875-323.527344c-93.886718 0-170.277344 76.386719-170.277344 170.277344v35.515625c0 17.972656 14.625 32.597656 32.601563 32.597656h44.027344c4.699219 0 8.511719 3.808594 8.511719 8.515625v49.125c0 5.773438 4.695312 10.46875 10.46875 10.46875h149.339843c5.769531 0 10.472657-4.695312 10.472657-10.46875v-49.125c0-4.707031 3.808593-8.515625 8.507812-8.515625h44.027344c17.976562 0 32.601562-14.625 32.601562-32.597656v-35.515625c0-93.898437-76.390625-170.277344-170.28125-170.277344zm0 0"/><path d="m493.914062 315.234375c0-27.972656-37.152343-65.128906-65.128906-65.128906-27.980468 0-50.65625 22.683593-50.65625 50.65625 0 27.976562 22.675782 50.660156 50.65625 50.660156 27.976563 0 65.128906-8.207031 65.128906-36.1875zm0 0"/><path d="m216.363281 315.234375c0-27.972656 37.152344-65.128906 65.128907-65.128906 27.980468 0 50.660156 22.683593 50.660156 50.65625 0 27.976562-22.679688 50.660156-50.660156 50.660156-27.976563 0-65.128907-8.207031-65.128907-36.1875zm0 0"/><path d="m306.609375 464.796875c-4.699219 0-8.515625-3.804687-8.515625-8.511719v-25.542968c0-4.703126 3.816406-8.515626 8.515625-8.515626 4.703125 0 8.511719 3.8125 8.511719 8.515626v25.542968c0 4.703125-3.808594 8.511719-8.511719 8.511719zm0 0"/><path d="m340.664062 464.796875c-4.699218 0-8.511718-3.804687-8.511718-8.511719v-25.542968c0-4.703126 3.8125-8.515626 8.511718-8.515626 4.703126 0 8.515626 3.8125 8.515626 8.515626v25.542968c0 4.703125-3.8125 8.511719-8.515626 8.511719zm0 0"/><path d="m374.722656 464.796875c-4.699218 0-8.515625-3.804687-8.515625-8.511719v-25.542968c0-4.703126 3.816407-8.515626 8.515625-8.515626 4.703125 0 8.511719 3.8125 8.511719 8.515626v25.542968c0 4.703125-3.808594 8.511719-8.511719 8.511719zm0 0"/><path d="m408.777344 464.796875c-4.703125 0-8.511719-3.804687-8.511719-8.511719v-25.542968c0-4.703126 3.808594-8.515626 8.511719-8.515626 4.699218 0 8.515625 3.8125 8.515625 8.515626v25.542968c0 4.703125-3.816407 8.511719-8.515625 8.511719zm0 0"/><path d="m353.28125 343.707031-24.148438 36.222657c-2.347656 3.523437.175782 8.238281 4.410157 8.238281h48.300781c4.234375 0 6.757812-4.714844 4.410156-8.238281l-24.148437-36.222657c-2.101563-3.148437-6.722657-3.148437-8.824219 0zm0 0"/><path d="m46.195312 173.011719 49.839844-11.207031 9.976563-89.082032-49.835938 11.203125zm0 0"/><path d="m145.875 150.601562 49.835938-11.207031 9.984374-89.082031-49.839843 11.203125zm0 0"/><path d="m245.554688 128.191406 49.835937-11.207031 9.984375-89.082031-49.839844 11.203125zm0 0"/><path d="m355.210938 16.695312-9.976563 89.085938 49.835937-11.207031 9.984376-89.082031zm0 0"/></svg>