<?xml version="1.0" encoding="iso-8859-1"?>
<!-- Generator: Adobe Illustrator 19.0.0, SVG Export Plug-In . SVG Version: 6.00 Build 0)  -->
<svg version="1.1" id="Capa_1" xmlns="http://www.w3.org/2000/svg" xmlns:xlink="http://www.w3.org/1999/xlink" x="0px" y="0px"
	 viewBox="0 0 512 512" style="enable-background:new 0 0 512 512;" xml:space="preserve">
<g>
	<g>
		<path d="M504,80H8c-2.211,0-4,1.789-4,4v344c0,2.211,1.789,4,4,4h496c2.211,0,4-1.789,4-4V84C508,81.789,506.211,80,504,80z
			 M500,424H12V88h488V424z"/>
	</g>
</g>
<g>
	<g>
		<path d="M504,64h-20V24h20c2.211,0,4-1.789,4-4s-1.789-4-4-4h-24c-2.211,0-4,1.789-4,4v48c0,2.211,1.789,4,4,4h24
			c2.211,0,4-1.789,4-4S506.211,64,504,64z"/>
	</g>
</g>
<g>
	<g>
		<path d="M432,16h-32c-2.211,0-4,1.789-4,4v48c0,2.211,1.789,4,4,4h32c2.211,0,4-1.789,4-4V20C436,17.789,434.211,16,432,16z
			 M428,64h-24V24h24V64z"/>
	</g>
</g>
<g>
	<g>
		<path d="M352,16h-32c-2.211,0-4,1.789-4,4v48c0,2.211,1.789,4,4,4h32c2.211,0,4-1.789,4-4V20C356,17.789,354.211,16,352,16z
			 M348,64h-24V24h24V64z"/>
	</g>
</g>
<g>
	<g>
		<path d="M272,16h-32c-2.211,0-4,1.789-4,4v48c0,2.211,1.789,4,4,4h32c2.211,0,4-1.789,4-4V20C276,17.789,274.211,16,272,16z
			 M268,64h-24V24h24V64z"/>
	</g>
</g>
<g>
	<g>
		<path d="M192,16h-32c-2.211,0-4,1.789-4,4v48c0,2.211,1.789,4,4,4h32c2.211,0,4-1.789,4-4V20C196,17.789,194.211,16,192,16z
			 M188,64h-24V24h24V64z"/>
	</g>
</g>
<g>
	<g>
		<path d="M112,16H80c-2.211,0-4,1.789-4,4v48c0,2.211,1.789,4,4,4h32c2.211,0,4-1.789,4-4V20C116,17.789,114.211,16,112,16z
			 M108,64H84V24h24V64z"/>
	</g>
</g>
<g>
	<g>
		<path d="M32,16H8c-2.211,0-4,1.789-4,4s1.789,4,4,4h20v40H8c-2.211,0-4,1.789-4,4s1.789,4,4,4h24c2.211,0,4-1.789,4-4V20
			C36,17.789,34.211,16,32,16z"/>
	</g>
</g>
<g>
	<g>
		<path d="M504,0H8C5.789,0,4,1.789,4,4s1.789,4,4,4h496c2.211,0,4-1.789,4-4S506.211,0,504,0z"/>
	</g>
</g>
<g>
	<g>
		<path d="M32,440H8c-2.211,0-4,1.789-4,4s1.789,4,4,4h20v40H8c-2.211,0-4,1.789-4,4s1.789,4,4,4h24c2.211,0,4-1.789,4-4v-48
			C36,441.789,34.211,440,32,440z"/>
	</g>
</g>
<g>
	<g>
		<path d="M112,440H80c-2.211,0-4,1.789-4,4v48c0,2.211,1.789,4,4,4h32c2.211,0,4-1.789,4-4v-48C116,441.789,114.211,440,112,440z
			 M108,488H84v-40h24V488z"/>
	</g>
</g>
<g>
	<g>
		<path d="M192,440h-32c-2.211,0-4,1.789-4,4v48c0,2.211,1.789,4,4,4h32c2.211,0,4-1.789,4-4v-48C196,441.789,194.211,440,192,440z
			 M188,488h-24v-40h24V488z"/>
	</g>
</g>
<g>
	<g>
		<path d="M272,440h-32c-2.211,0-4,1.789-4,4v48c0,2.211,1.789,4,4,4h32c2.211,0,4-1.789,4-4v-48C276,441.789,274.211,440,272,440z
			 M268,488h-24v-40h24V488z"/>
	</g>
</g>
<g>
	<g>
		<path d="M352,440h-32c-2.211,0-4,1.789-4,4v48c0,2.211,1.789,4,4,4h32c2.211,0,4-1.789,4-4v-48C356,441.789,354.211,440,352,440z
			 M348,488h-24v-40h24V488z"/>
	</g>
</g>
<g>
	<g>
		<path d="M432,440h-32c-2.211,0-4,1.789-4,4v48c0,2.211,1.789,4,4,4h32c2.211,0,4-1.789,4-4v-48C436,441.789,434.211,440,432,440z
			 M428,488h-24v-40h24V488z"/>
	</g>
</g>
<g>
	<g>
		<path d="M504,488h-20v-40h20c2.211,0,4-1.789,4-4s-1.789-4-4-4h-24c-2.211,0-4,1.789-4,4v48c0,2.211,1.789,4,4,4h24
			c2.211,0,4-1.789,4-4S506.211,488,504,488z"/>
	</g>
</g>
<g>
	<g>
		<path d="M504,504H8c-2.211,0-4,1.789-4,4s1.789,4,4,4h496c2.211,0,4-1.789,4-4S506.211,504,504,504z"/>
	</g>
</g>
<g>
	<g>
		<path d="M256.004,120c-68.41,0-120,58.469-120,136c0,82.391,54.953,152,120,152C321.047,408,376,338.391,376,256
			C376,178.469,324.414,120,256.004,120z M256.004,400c-59.664,0-112-67.289-112-144c0-72.969,48.148-128,112-128
			C319.852,128,368,183.031,368,256C368,332.711,315.664,400,256.004,400z"/>
	</g>
</g>
<g>
	<g>
		<path d="M236,104c-2.211,0-4,1.789-4,4v8c0,2.211,1.789,4,4,4s4-1.789,4-4v-8C240,105.789,238.211,104,236,104z"/>
	</g>
</g>
<g>
	<g>
		<path d="M276,104h-40c-2.211,0-4,1.789-4,4s1.789,4,4,4h40c2.211,0,4-1.789,4-4S278.211,104,276,104z"/>
	</g>
</g>
<g>
	<g>
		<path d="M276,104c-2.211,0-4,1.789-4,4v8c0,2.211,1.789,4,4,4s4-1.789,4-4v-8C280,105.789,278.211,104,276,104z"/>
	</g>
</g>
<g>
	<g>
		<path d="M388,232h-8c-2.211,0-4,1.789-4,4s1.789,4,4,4h8c2.211,0,4-1.789,4-4S390.211,232,388,232z"/>
	</g>
</g>
<g>
	<g>
		<path d="M388,232c-2.211,0-4,1.789-4,4v40c0,2.211,1.789,4,4,4s4-1.789,4-4v-40C392,233.789,390.211,232,388,232z"/>
	</g>
</g>
<g>
	<g>
		<path d="M388,272h-8c-2.211,0-4,1.789-4,4s1.789,4,4,4h8c2.211,0,4-1.789,4-4S390.211,272,388,272z"/>
	</g>
</g>
<g>
	<g>
		<path d="M132,232h-8c-2.211,0-4,1.789-4,4s1.789,4,4,4h8c2.211,0,4-1.789,4-4S134.211,232,132,232z"/>
	</g>
</g>
<g>
	<g>
		<path d="M124,232c-2.211,0-4,1.789-4,4v40c0,2.211,1.789,4,4,4s4-1.789,4-4v-40C128,233.789,126.211,232,124,232z"/>
	</g>
</g>
<g>
	<g>
		<path d="M132,272h-8c-2.211,0-4,1.789-4,4s1.789,4,4,4h8c2.211,0,4-1.789,4-4S134.211,272,132,272z"/>
	</g>
</g>
<g>
	<g>
		<path d="M238.689,247.446c-3.395-8.711-13.614-17.992-23.77-21.594c-3.473-1.227-7.133-1.852-10.879-1.852
			c-11.051,0-21.094,5.485-25.582,13.969c-2.863,5.407-3.235,11.477-1.047,17.102c2.527,6.5,8.261,11.75,15.73,14.406
			c4.594,1.625,10.508,2.523,16.66,2.523c5.281,0,22.953-0.828,28.618-11.515C240.435,256.673,240.529,252.165,238.689,247.446z
			 M231.347,256.734C229.046,261.078,220.386,264,209.8,264c-5.187,0-10.285-0.75-13.984-2.062
			c-5.273-1.875-9.265-5.438-10.949-9.766c-1.352-3.477-1.125-7.086,0.66-10.461c3.121-5.899,10.387-9.711,18.512-9.711
			c2.832,0,5.594,0.469,8.207,1.398c7.918,2.805,16.437,10.406,18.988,16.953C232.218,252.875,232.253,255.023,231.347,256.734z"/>
	</g>
</g>
<g>
	<g>
		<path d="M333.547,237.976c-4.484-8.493-14.531-13.977-25.578-13.977c-3.75,0-7.406,0.625-10.883,1.852
			c-10.156,3.602-20.375,12.891-23.773,21.594c-1.828,4.727-1.735,9.227,0.281,13.039C279.25,271.172,296.922,272,302.203,272
			c6.156,0,12.063-0.898,16.657-2.532c7.468-2.648,13.203-7.898,15.734-14.398C336.781,249.445,336.406,243.374,333.547,237.976z
			 M327.141,252.164c-1.687,4.336-5.68,7.899-10.953,9.766c-3.703,1.32-8.796,2.07-13.984,2.07c-10.586,0-19.242-2.922-21.547-7.266
			c-0.906-1.711-0.867-3.86,0.117-6.383c2.546-6.539,11.062-14.148,18.984-16.953c2.617-0.929,5.383-1.398,8.211-1.398
			c8.125,0,15.39,3.812,18.5,9.719C328.258,245.086,328.485,248.695,327.141,252.164z"/>
	</g>
</g>
<g>
	<g>
		<path d="M256,248c-2.211,0-4,1.789-4,4v48c0,2.211,1.789,4,4,4s4-1.789,4-4v-48C260,249.789,258.211,248,256,248z"/>
	</g>
</g>
<g>
	<g>
		<path d="M268,296h-24c-2.211,0-4,1.789-4,4s1.789,4,4,4h24c2.211,0,4-1.789,4-4S270.211,296,268,296z"/>
	</g>
</g>
<g>
	<g>
		<path d="M196,176c-6.617,0-12,5.383-12,12s5.383,12,12,12s12-5.383,12-12S202.617,176,196,176z M196,192c-2.207,0-4-1.797-4-4
			s1.793-4,4-4c2.207,0,4,1.797,4,4S198.207,192,196,192z"/>
	</g>
</g>
<g>
	<g>
		<path d="M236,176c-6.617,0-12,5.383-12,12s5.383,12,12,12s12-5.383,12-12S242.617,176,236,176z M236,192c-2.207,0-4-1.797-4-4
			s1.793-4,4-4c2.207,0,4,1.797,4,4S238.207,192,236,192z"/>
	</g>
</g>
<g>
	<g>
		<path d="M276,176c-6.617,0-12,5.383-12,12s5.383,12,12,12s12-5.383,12-12S282.617,176,276,176z M276,192c-2.203,0-4-1.797-4-4
			s1.797-4,4-4s4,1.797,4,4S278.203,192,276,192z"/>
	</g>
</g>
<g>
	<g>
		<path d="M316,176c-6.617,0-12,5.383-12,12s5.383,12,12,12s12-5.383,12-12S322.617,176,316,176z M316,192c-2.203,0-4-1.797-4-4
			s1.797-4,4-4s4,1.797,4,4S318.203,192,316,192z"/>
	</g>
</g>
<g>
	<g>
		<path d="M196,328c-6.617,0-12,5.383-12,12s5.383,12,12,12s12-5.383,12-12S202.617,328,196,328z M196,344c-2.207,0-4-1.797-4-4
			s1.793-4,4-4c2.207,0,4,1.797,4,4S198.207,344,196,344z"/>
	</g>
</g>
<g>
	<g>
		<path d="M236,328c-6.617,0-12,5.383-12,12s5.383,12,12,12s12-5.383,12-12S242.617,328,236,328z M236,344c-2.207,0-4-1.797-4-4
			s1.793-4,4-4c2.207,0,4,1.797,4,4S238.207,344,236,344z"/>
	</g>
</g>
<g>
	<g>
		<path d="M276,328c-6.617,0-12,5.383-12,12s5.383,12,12,12s12-5.383,12-12S282.617,328,276,328z M276,344c-2.203,0-4-1.797-4-4
			s1.797-4,4-4s4,1.797,4,4S278.203,344,276,344z"/>
	</g>
</g>
<g>
	<g>
		<path d="M236,368c-6.617,0-12,5.383-12,12s5.383,12,12,12s12-5.383,12-12S242.617,368,236,368z M236,384c-2.207,0-4-1.797-4-4
			s1.793-4,4-4c2.207,0,4,1.797,4,4S238.207,384,236,384z"/>
	</g>
</g>
<g>
	<g>
		<path d="M276,368c-6.617,0-12,5.383-12,12s5.383,12,12,12s12-5.383,12-12S282.617,368,276,368z M276,384c-2.203,0-4-1.797-4-4
			s1.797-4,4-4s4,1.797,4,4S278.203,384,276,384z"/>
	</g>
</g>
<g>
	<g>
		<path d="M316,328c-6.617,0-12,5.383-12,12s5.383,12,12,12s12-5.383,12-12S322.617,328,316,328z M316,344c-2.203,0-4-1.797-4-4
			s1.797-4,4-4s4,1.797,4,4S318.203,344,316,344z"/>
	</g>
</g>
<g>
	<g>
		<path d="M276,224h-40c-2.211,0-4,1.789-4,4s1.789,4,4,4h40c2.211,0,4-1.789,4-4S278.211,224,276,224z"/>
	</g>
</g>
<g>
	<g>
		<path d="M310.828,305.172l-16-16c-1.562-1.562-4.094-1.562-5.656,0s-1.562,4.094,0,5.656l16,16
			c0.781,0.781,1.805,1.172,2.828,1.172s2.047-0.391,2.828-1.172C312.39,309.266,312.39,306.734,310.828,305.172z"/>
	</g>
</g>
<g>
	<g>
		<path d="M222.828,289.172c-1.562-1.562-4.094-1.562-5.656,0l-16,16c-1.562,1.562-1.562,4.094,0,5.656
			c0.781,0.781,1.805,1.172,2.828,1.172s2.047-0.391,2.828-1.172l16-16C224.39,293.266,224.39,290.734,222.828,289.172z"/>
	</g>
</g>
<g>
</g>
<g>
</g>
<g>
</g>
<g>
</g>
<g>
</g>
<g>
</g>
<g>
</g>
<g>
</g>
<g>
</g>
<g>
</g>
<g>
</g>
<g>
</g>
<g>
</g>
<g>
</g>
<g>
</g>
</svg>
